<?xml version="1.0" encoding="UTF-8"?>
<!-- Do not edit this file with editors other than draw.io -->
<!DOCTYPE svg PUBLIC "-//W3C//DTD SVG 1.1//EN" "http://www.w3.org/Graphics/SVG/1.1/DTD/svg11.dtd">
<svg xmlns="http://www.w3.org/2000/svg" style="background: transparent; background-color: transparent; color-scheme: light dark;" xmlns:xlink="http://www.w3.org/1999/xlink" version="1.1" width="460px" height="330px" viewBox="0 0 460 330" content="&lt;mxfile host=&quot;Electron&quot; agent=&quot;Mozilla/5.0 (X11; Linux x86_64) AppleWebKit/537.36 (KHTML, like Gecko) draw.io/28.2.8 Chrome/140.0.7339.240 Electron/38.4.0 Safari/537.36&quot; version=&quot;28.2.8&quot; scale=&quot;1&quot; border=&quot;0&quot;&gt;&#10;  &lt;diagram name=&quot;Page-1&quot; id=&quot;7-n0JildzjlGQQKqUYqp&quot;&gt;&#10;    &lt;mxGraphModel dx=&quot;1678&quot; dy=&quot;1073&quot; grid=&quot;1&quot; gridSize=&quot;10&quot; guides=&quot;1&quot; tooltips=&quot;1&quot; connect=&quot;1&quot; arrows=&quot;1&quot; fold=&quot;1&quot; page=&quot;1&quot; pageScale=&quot;1&quot; pageWidth=&quot;1065&quot; pageHeight=&quot;1065&quot; math=&quot;0&quot; shadow=&quot;0&quot;&gt;&#10;      &lt;root&gt;&#10;        &lt;mxCell id=&quot;0&quot; /&gt;&#10;        &lt;mxCell id=&quot;1&quot; parent=&quot;0&quot; /&gt;&#10;        &lt;mxCell id=&quot;rCF2TDKQgmuc74v03mQ7-2&quot; value=&quot;&quot; style=&quot;verticalLabelPosition=bottom;verticalAlign=top;html=1;shape=mxgraph.basic.acute_triangle;dx=0.5;fillColor=none;strokeWidth=12;linecap=round;linejoin=round;&quot; vertex=&quot;1&quot; parent=&quot;1&quot;&gt;&#10;          &lt;mxGeometry x=&quot;320.5&quot; y=&quot;183&quot; width=&quot;447.01&quot; height=&quot;318&quot; as=&quot;geometry&quot; /&gt;&#10;        &lt;/mxCell&gt;&#10;        &lt;mxCell id=&quot;rCF2TDKQgmuc74v03mQ7-1&quot; value=&quot;&quot; style=&quot;shape=mxgraph.signs.healthcare.eye;html=1;pointerEvents=1;fillColor=#FFFFFF;verticalLabelPosition=bottom;verticalAlign=top;align=center;strokeColor=none;linecap=round;linejoin=round;&quot; vertex=&quot;1&quot; parent=&quot;1&quot;&gt;&#10;          &lt;mxGeometry x=&quot;400&quot; y=&quot;330&quot; width=&quot;288&quot; height=&quot;160&quot; as=&quot;geometry&quot; /&gt;&#10;        &lt;/mxCell&gt;&#10;      &lt;/root&gt;&#10;    &lt;/mxGraphModel&gt;&#10;  &lt;/diagram&gt;&#10;&lt;/mxfile&gt;&#10;"><defs/><g><g data-cell-id="0"><g data-cell-id="1"><g data-cell-id="rCF2TDKQgmuc74v03mQ7-2"><g><path d="M 5.5 324 L 229 6 L 452.51 324 Z" fill="none" stroke="#000000" stroke-width="12" stroke-linejoin="round" stroke-linecap="round" stroke-miterlimit="10" pointer-events="all" style="stroke: light-dark(rgb(0, 0, 0), rgb(255, 255, 255));"/></g></g><g data-cell-id="rCF2TDKQgmuc74v03mQ7-1"><g transform="translate(0.5,0.5)"><rect x="85" y="153" width="288" height="160" fill="none" stroke="none" pointer-events="all"/><path d="M 371.34 230.5 C 339.63 181.96 286.43 153 229 153 C 171.6 153 118.37 181.96 86.63 230.5 L 85 233 L 86.63 235.5 C 118.34 284.04 171.57 313 229 313 C 286.43 313 339.63 284.04 371.34 235.47 L 373 233 L 371.34 230.5 Z M 102.37 233 C 125.76 200.28 160.05 178.27 198.51 170.54 C 192.08 173.82 186.12 178.13 180.91 183.39 C 167.82 196.59 160.61 214.16 160.61 232.8 C 160.61 251.47 167.82 269.03 180.91 282.23 C 186.47 287.82 192.81 292.29 199.65 295.64 C 160.72 288.17 125.99 266.04 102.37 233 Z M 229.73 276.13 C 206.16 276.13 186.99 256.76 186.99 232.97 C 186.99 221.46 191.44 210.64 199.5 202.47 C 207.56 194.32 218.29 189.84 229.73 189.84 C 241.13 189.84 251.87 194.32 259.95 202.47 C 268.01 210.64 272.46 221.46 272.46 232.97 C 272.46 244.49 268.01 255.33 259.95 263.51 C 251.87 271.62 241.1 276.13 229.73 276.13 Z M 261.12 295.14 C 267.57 291.86 273.51 287.55 278.77 282.26 C 291.84 269.06 299.05 251.5 299.05 232.83 C 299.05 206.04 284.01 182.75 262.02 171.03 C 299.46 179.17 332.74 201.01 355.6 233 C 332.56 265.25 298.93 287.15 261.12 295.14 Z" fill="#ffffff" stroke="none" pointer-events="all" style="fill: rgb(255, 255, 255);"/><path d="M 214.89 235.38 C 222.69 235.38 229 229.02 229 221.14 C 229 213.25 222.66 206.86 214.89 206.86 C 207.09 206.86 200.78 213.25 200.78 221.14 C 200.78 229.02 207.09 235.38 214.89 235.38" fill="#ffffff" stroke="none" pointer-events="all" style="fill: rgb(255, 255, 255);"/></g></g></g></g></g></svg>